<svg width="20" height="20" viewBox="0 0 20 20" fill="none" xmlns="http://www.w3.org/2000/svg">
<path fill-rule="evenodd" clip-rule="evenodd" d="M7.5 1C3.91015 1 1 3.91015 1 7.5C1 11.0899 3.91015 14 7.5 14C11.0899 14 14 11.0899 14 7.5C14 3.91015 11.0899 1 7.5 1ZM0 7.5C0 3.35786 3.35786 0 7.5 0C11.6421 0 15 3.35786 15 7.5C15 9.39153 14.2998 11.1195 13.1444 12.4389L19.8518 19.1463C20.0471 19.3416 20.0471 19.6582 19.8518 19.8534C19.6566 20.0487 19.34 20.0487 19.1447 19.8534L12.4372 13.1459C11.118 14.3004 9.39072 15 7.5 15C3.35786 15 0 11.6421 0 7.5Z" fill="black"/>
</svg>
